<svg width="23" height="23" viewBox="0 0 23 23" fill="none" xmlns="http://www.w3.org/2000/svg">
<path fill-rule="evenodd" clip-rule="evenodd" d="M11.5 1C11.9832 1 12.375 1.39175 12.375 1.875V10.625H21.125C21.6082 10.625 22 11.0168 22 11.5C22 11.9832 21.6082 12.375 21.125 12.375H12.375V21.125C12.375 21.6082 11.9832 22 11.5 22C11.0167 22 10.625 21.6082 10.625 21.125V12.375H1.875C1.39175 12.375 1 11.9832 1 11.5C1 11.0168 1.39175 10.625 1.875 10.625H10.625V1.875C10.625 1.39175 11.0168 1 11.5 1Z" fill="#C3C8AA" stroke="#C3C8AA" stroke-width="2" stroke-linecap="round" stroke-linejoin="round"/>
</svg>
