<svg width="22" height="22" viewBox="0 0 22 22" fill="none" xmlns="http://www.w3.org/2000/svg">
<path d="M4.8125 0C5.1922 0 5.5 0.307804 5.5 0.6875V1.375H16.5V0.6875C16.5 0.307804 16.8078 0 17.1875 0C17.5672 0 17.875 0.307804 17.875 0.6875V1.375H19.25C20.7688 1.375 22 2.60622 22 4.125V19.25C22 20.7688 20.7688 22 19.25 22H2.75C1.23122 22 0 20.7688 0 19.25V4.125C0 2.60622 1.23122 1.375 2.75 1.375H4.125V0.6875C4.125 0.307804 4.4328 0 4.8125 0ZM18.5 4.125H3.5C3.08579 4.125 2.75 4.4328 2.75 4.8125V6.1875C2.75 6.5672 3.08579 6.875 3.5 6.875H18.5C18.9142 6.875 19.25 6.5672 19.25 6.1875V4.8125C19.25 4.4328 18.9142 4.125 18.5 4.125ZM15.8125 9.625C15.4328 9.625 15.125 9.9328 15.125 10.3125V11.6875C15.125 12.0672 15.4328 12.375 15.8125 12.375H17.1875C17.5672 12.375 17.875 12.0672 17.875 11.6875V10.3125C17.875 9.9328 17.5672 9.625 17.1875 9.625H15.8125Z" fill="#546640"/>
</svg>
