<svg width="24" height="21" viewBox="0 0 24 21" fill="none" xmlns="http://www.w3.org/2000/svg">
<path d="M12 8.1387L10.6584 5.52901C10.326 4.88252 9.74813 3.95244 8.93112 3.20152C8.12674 2.46222 7.16473 1.95886 6 1.95886C3.48601 1.95886 1.5 3.89372 1.5 6.21874C1.5 7.98553 2.33059 9.23242 4.30233 11.1351C4.80714 11.6223 5.38402 12.1488 6.02033 12.7296C7.68293 14.2472 9.7513 16.1351 12 18.658C14.2487 16.1351 16.3171 14.2472 17.9797 12.7296C18.616 12.1488 19.1929 11.6223 19.6977 11.1351C21.6694 9.23242 22.5 7.98553 22.5 6.21874C22.5 3.89372 20.514 1.95886 18 1.95886C16.8353 1.95886 15.8733 2.46222 15.0689 3.20152C14.2519 3.95244 13.674 4.88252 13.3416 5.52901L12 8.1387ZM12.5873 20.2352C12.2816 20.5883 11.7184 20.5883 11.4127 20.2352C9.01039 17.4609 6.83729 15.4773 5.04761 13.8438C1.9492 11.0156 0 9.23647 0 6.21874C0 3.06037 2.68629 0.5 6 0.5C8.40023 0.5 10.0778 2.03081 11.1053 3.4292C11.4963 3.9614 11.7932 4.47443 12 4.87659C12.2068 4.47443 12.5037 3.9614 12.8947 3.4292C13.9222 2.03081 15.5998 0.5 18 0.5C21.3137 0.5 24 3.06037 24 6.21874C24 9.23647 22.0508 11.0156 18.9524 13.8438C17.1627 15.4773 14.9896 17.4609 12.5873 20.2352Z" fill="white"/>
</svg>
