<svg width="47" height="46" viewBox="0 0 47 46" fill="none" xmlns="http://www.w3.org/2000/svg">
<g clip-path="url(#clip0_125_12471)">
<path d="M25.4443 36.7005C25.3055 37.4214 25.2372 37.8472 25.1431 38.2661C24.7321 40.1326 23.8323 41.8635 22.5337 43.2859C20.8718 45.1126 18.7857 45.8837 16.3606 45.7312C14.0214 45.5921 12.1674 44.2762 12.1551 41.3162C12.1456 39.4446 12.6682 37.5687 12.9621 35.6951C13.0181 35.351 13.1211 35.014 13.1843 34.7442C12.7579 34.3007 12.39 34.4783 12.0903 34.6289C9.56166 35.8659 7.0301 35.4476 4.52543 34.6527C3.82677 34.4157 3.18383 34.0437 2.63396 33.5585C-0.11497 31.1689 -0.569851 25.9767 1.68901 23.1275C2.43779 22.1604 3.38546 21.4999 4.63911 21.3144C5.57368 21.1766 6.50124 20.9985 7.61742 20.8066C7.10742 20.2257 6.742 19.7807 6.34858 19.3634C4.14158 17.0326 3.34116 14.254 3.67867 11.1076C3.70716 10.6692 3.75982 10.2326 3.83644 9.7995C3.98913 9.01426 4.31114 8.26942 4.78062 7.61556C5.2501 6.9617 5.85604 6.41414 6.5573 6.01005C8.21183 4.99607 9.78869 4.87992 11.6279 5.16794C15.3108 5.72975 18.014 7.62905 20.0173 10.6438C20.2312 10.9223 20.4591 11.1899 20.7003 11.4456C20.9292 10.7844 21.1182 10.1107 21.2662 9.42803C21.5708 7.46948 22.2605 5.58589 23.2964 3.88332C24.1096 2.46391 25.4465 1.40643 27.0264 0.932845C29.3544 0.247939 32.2611 1.47377 33.4413 3.69148C34.1293 4.94667 34.5394 6.33296 34.6449 7.75947C34.7503 9.18598 34.5487 10.6205 34.0532 11.969C33.7967 12.7103 33.5252 13.4447 33.1778 14.4073C33.7471 14.3467 34.1072 14.381 34.4096 14.2638C37.1867 13.1955 40.0643 13.1345 42.9442 13.5269C44.2879 13.7055 45.3707 14.3851 45.9301 15.8045C46.34 16.8346 46.709 17.8272 46.7296 18.9455C46.7741 20.3509 46.2516 21.7202 45.2767 22.7534C43.6952 24.4715 41.8433 25.7848 39.5323 26.3738C38.5241 26.6159 37.516 26.8579 36.3062 27.1484C36.4929 27.4093 36.707 27.6499 36.945 27.8663C39.4152 29.5722 41.4019 31.696 42.6275 34.4356C43.955 37.4001 43.7558 40.2455 41.6993 42.8939C41.1359 43.6118 39.1187 44.5029 37.9095 44.4626C36.3561 44.4104 34.824 44.2245 33.3766 43.5694C30.3796 42.1895 27.828 40.322 26.0834 37.4971C25.9716 37.3087 25.8147 37.1548 25.4443 36.7005ZM20.8508 17.9233C20.191 16.452 19.661 15.1883 19.0634 13.9539C18.7828 13.3626 18.3998 12.822 18.1021 12.2374C16.8068 9.69563 14.5636 8.45748 11.8763 7.79045C9.86832 7.2989 8.24903 8.11546 6.79238 9.32075C6.35606 9.72051 6.06698 10.2519 5.9712 10.8301C5.71363 12.422 5.75273 13.9505 6.55557 15.4846C7.9416 18.1044 10.4786 19.0673 12.931 20.2106C14.1677 20.121 15.1816 20.7909 16.2842 21.1534C17.467 21.5386 17.7071 21.5282 18.2726 20.5526C18.8807 19.5327 19.5257 18.5774 20.8508 17.9233ZM26.3714 30.9246C26.3549 31.152 26.3501 31.3801 26.3569 31.6078C26.5522 33.8205 27.8362 35.5488 29.0913 37.2237C30.7482 39.4503 33.0576 40.8641 35.8206 41.5025C37.0493 41.7754 38.3314 41.7255 39.5391 41.3577C40.4949 41.0862 41.0989 40.5265 41.0936 39.4938C41.1 38.8422 41.0727 38.1909 41.0116 37.5425C40.7628 35.3295 39.3196 33.726 38.0557 32.0481C37.6089 31.4764 37.0703 30.9808 36.4612 30.5807C34.8789 29.5164 33.152 28.6767 31.3305 28.0858C30.8677 27.9668 30.3965 27.8817 29.9205 27.8312C29.3336 28.4734 28.8855 29.0718 28.3328 29.5456C27.7036 30.0398 27.048 30.5003 26.3689 30.9252L26.3714 30.9246ZM17.1191 24.7085C16.6565 24.5548 16.1824 24.4361 15.701 24.3535C13.7824 24.1344 11.8651 24.0095 9.95599 23.7409C8.20924 23.4937 6.57153 23.9892 4.90902 24.3149C4.48702 24.4286 4.1016 24.6487 3.79078 24.9534C2.43871 26.1835 2.21585 29.4965 3.34849 30.8832C3.44301 30.9987 3.55684 31.0974 3.68513 31.175C5.75565 32.4599 7.9525 33.1607 10.3865 32.1958C12.5434 31.342 14.4576 30.0662 16.2539 28.6324C17.7201 27.4668 17.8553 26.731 17.1191 24.7085ZM26.325 18.2073C27.5845 17.38 28.2882 16.2584 29.0653 15.1873C30.8902 12.7671 31.8795 9.83673 31.8866 6.83091C31.9096 6.13648 31.748 5.44949 31.418 4.83816C31.0879 4.22682 30.6007 3.71242 30.0049 3.34604C29.6783 3.10302 29.2815 2.96842 28.871 2.96141C28.4606 2.9544 28.0575 3.07534 27.7191 3.30699C26.3325 4.19365 25.1829 5.2675 24.5397 6.85222C23.3712 9.75721 23.0303 12.7784 23.0191 15.8517C23.018 16.4136 23.2695 16.9725 23.4119 17.5656L26.325 18.2073ZM29.3446 20.503L30.6065 24.26C35.1062 24.9039 39.2544 24.5614 42.8036 21.5127C43.1513 21.24 43.4687 20.9315 43.7502 20.5925C44.3971 19.7339 44.7424 18.6852 44.4178 17.7107C44.0599 16.6419 42.9545 16.4454 41.8894 16.2839C40.0971 16.0134 38.3624 16.283 36.605 16.5684C33.7309 17.0328 31.3809 18.3922 29.3446 20.503ZM19.1681 29.5677C18.3566 30.6286 17.572 31.5912 16.8784 32.6212C16.3934 33.3439 15.8694 34.1258 15.6678 34.9405C15.2231 36.7742 14.9605 38.6559 14.6473 40.5157C14.6123 40.7319 14.6015 40.951 14.6149 41.1691C14.7146 42.9613 15.9887 43.9046 17.7645 43.5622C18.9806 43.3201 19.9733 42.7695 20.6634 41.7246C21.4732 40.5119 22.556 39.4148 22.7208 37.9029C22.9092 36.1675 22.966 34.4165 23.0641 32.6713C23.0953 32.013 23.0359 31.3659 22.491 30.817L19.1681 29.5677ZM22.2997 20.583C21.7934 20.6752 21.3133 20.8765 20.8935 21.1723C20.4738 21.4682 20.1249 21.8514 19.8717 22.2945C19.3671 23.1242 19.5562 23.9449 19.6409 24.8195C19.8126 26.5786 21.1893 27.7046 22.8532 27.851C23.8 27.9612 24.757 27.9665 25.7065 27.8667C26.8146 27.7187 27.5407 27.0012 27.8107 25.8944C28.2613 24.0515 27.5498 22.3983 25.8632 21.4911C24.696 20.8711 23.4758 20.3741 22.2997 20.583Z" fill="#BE634F"/>
</g>
<defs>
<clipPath id="clip0_125_12471">
<rect width="47" height="46" fill="white"/>
</clipPath>
</defs>
</svg>
