<svg xmlns="http://www.w3.org/2000/svg" style="display: none;">
  <defs>
    <symbol id="settings-menu" viewBox="0 0 26 26">
    	<path fill="currentColor" d="M15.2826 1.70688C14.6118 -0.568959 11.3882 -0.568959 10.7174 1.70688L10.5547 2.2588C10.1261 3.71296 8.4652 4.40094 7.13388 3.67577L6.62859 3.40054C4.545 2.2656 2.2656 4.545 3.40054 6.62859L3.67577 7.13388C4.40095 8.4652 3.71296 10.1261 2.2588 10.5547L1.70688 10.7174C-0.568959 11.3882 -0.568959 14.6118 1.70688 15.2826L2.2588 15.4453C3.71296 15.8739 4.40094 17.5348 3.67577 18.8661L3.40054 19.3714C2.2656 21.455 4.545 23.7344 6.62858 22.5995L7.13388 22.3242C8.4652 21.5991 10.1261 22.287 10.5547 23.7412L10.7174 24.2931C11.3882 26.569 14.6118 26.569 15.2826 24.2931L15.4453 23.7412C15.8739 22.287 17.5348 21.5991 18.8661 22.3242L19.3714 22.5995C21.455 23.7344 23.7344 21.455 22.5995 19.3714L22.3242 18.8661C21.5991 17.5348 22.287 15.8739 23.7412 15.4453L24.2931 15.2826C26.569 14.6118 26.569 11.3882 24.2931 10.7174L23.7412 10.5547C22.287 10.1261 21.5991 8.4652 22.3242 7.13388L22.5995 6.62858C23.7344 4.545 21.455 2.2656 19.3714 3.40054L18.8661 3.67577C17.5348 4.40095 15.8739 3.71296 15.4453 2.2588L15.2826 1.70688ZM13 17.7593C10.3715 17.7593 8.24068 15.6285 8.24068 13C8.24068 10.3715 10.3715 8.24068 13 8.24068C15.6285 8.24068 17.7593 10.3715 17.7593 13C17.7593 15.6285 15.6285 17.7593 13 17.7593Z"/>
    </symbol>
    <symbol id="home-menu" viewBox="0 0 26 26">
    	<path fill="currentColor" d="M14.1314 1.50964C13.5065 0.830121 12.4935 0.830117 11.8686 1.50964L1.23431 13.0746C0.921895 13.4144 0.921895 13.9653 1.23431 14.305C1.54673 14.6448 2.05327 14.6448 2.36569 14.305L13 2.74003L23.6343 14.305C23.9467 14.6448 24.4533 14.6448 24.7657 14.305C25.0781 13.9653 25.0781 13.4144 24.7657 13.0746L21 8.97939V3.24967C21 2.76917 20.6418 2.37966 20.2 2.37966H18.6C18.1582 2.37966 17.8 2.76917 17.8 3.24967V5.49934L14.1314 1.50964Z"/>
		<path fill="currentColor" d="M13 4.62932L22.6 15.0695V22.39C22.6 23.8314 21.5255 25 20.2 25H5.8C4.47452 25 3.4 23.8314 3.4 22.39V15.0695L13 4.62932Z"/>
    </symbol>
    <symbol id="plant-menu" viewBox="0 0 26 26">
    	<path fill="currentColor" d="M25 2.2V4.6C25 9.2392 21.0413 13 16.1579 13H14.8947V14.2H21.2105V22.6C21.2105 23.926 20.08 25 18.6842 25H8.57895C7.18316 25 6.05263 23.926 6.05263 22.6V14.2H12.3684V10.6C12.3684 5.9608 16.3272 2.2 21.2105 2.2H25ZM5.42105 1C8.61558 1 11.44 2.5012 13.1566 4.8028C11.8682 6.412 11.1053 8.422 11.1053 10.6V11.8H10.4737C5.24168 11.8 1 7.7704 1 2.8V1H5.42105Z"/>
    </symbol>
    <symbol id="search-menu" viewBox="0 0 26 26" fill="none">
    	<path stroke="currentColor" stroke-width="2.5" stroke-linecap="round" stroke-linejoin="round" d="M19.3934 19.3978L24 24M22.39 12.1852C22.39 17.8103 17.8255 22.3704 12.195 22.3704C6.56445 22.3704 2 17.8103 2 12.1852C2 6.56006 6.56445 2 12.195 2C17.8255 2 22.39 6.56006 22.39 12.1852Z"/>
    </symbol>
    <symbol id="calendar-menu" viewBox="0 0 26 26">
    	<path fill="currentColor" d="M6.25 1C6.66421 1 7 1.33579 7 1.75V2.5H19V1.75C19 1.33579 19.3358 1 19.75 1C20.1642 1 20.5 1.33579 20.5 1.75V2.5H22C23.6569 2.5 25 3.84315 25 5.5V7V8.5V22C25 23.6569 23.6569 25 22 25H4C2.34315 25 1 23.6569 1 22V8.5H25V7H1V5.5C1 3.84315 2.34315 2.5 4 2.5H5.5V1.75C5.5 1.33579 5.83579 1 6.25 1Z"/>
    </symbol>
  </defs>
</svg>