<svg width="18" height="18" viewBox="0 0 18 18" fill="none" xmlns="http://www.w3.org/2000/svg">
<path d="M0 1.92857C0 0.863451 0.863451 0 1.92857 0L5.78571 0C6.85083 0 7.71429 0.863451 7.71429 1.92857V5.78571C7.71429 6.85083 6.85083 7.71429 5.78571 7.71429H1.92857C0.863451 7.71429 0 6.85083 0 5.78571L0 1.92857ZM1.92857 1.28571C1.57353 1.28571 1.28571 1.57353 1.28571 1.92857V5.78571C1.28571 6.14075 1.57353 6.42857 1.92857 6.42857H5.78571C6.14075 6.42857 6.42857 6.14075 6.42857 5.78571V1.92857C6.42857 1.57353 6.14075 1.28571 5.78571 1.28571H1.92857ZM10.2857 1.92857C10.2857 0.863451 11.1492 0 12.2143 0L16.0714 0C17.1365 0 18 0.863451 18 1.92857V5.78571C18 6.85083 17.1365 7.71429 16.0714 7.71429H12.2143C11.1492 7.71429 10.2857 6.85083 10.2857 5.78571V1.92857ZM12.2143 1.28571C11.8592 1.28571 11.5714 1.57353 11.5714 1.92857V5.78571C11.5714 6.14075 11.8592 6.42857 12.2143 6.42857H16.0714C16.4265 6.42857 16.7143 6.14075 16.7143 5.78571V1.92857C16.7143 1.57353 16.4265 1.28571 16.0714 1.28571H12.2143ZM0 12.2143C0 11.1492 0.863451 10.2857 1.92857 10.2857H5.78571C6.85083 10.2857 7.71429 11.1492 7.71429 12.2143V16.0714C7.71429 17.1365 6.85083 18 5.78571 18H1.92857C0.863451 18 0 17.1365 0 16.0714L0 12.2143ZM1.92857 11.5714C1.57353 11.5714 1.28571 11.8592 1.28571 12.2143V16.0714C1.28571 16.4265 1.57353 16.7143 1.92857 16.7143H5.78571C6.14075 16.7143 6.42857 16.4265 6.42857 16.0714V12.2143C6.42857 11.8592 6.14075 11.5714 5.78571 11.5714H1.92857ZM10.2857 12.2143C10.2857 11.1492 11.1492 10.2857 12.2143 10.2857H16.0714C17.1365 10.2857 18 11.1492 18 12.2143V16.0714C18 17.1365 17.1365 18 16.0714 18H12.2143C11.1492 18 10.2857 17.1365 10.2857 16.0714V12.2143ZM12.2143 11.5714C11.8592 11.5714 11.5714 11.8592 11.5714 12.2143V16.0714C11.5714 16.4265 11.8592 16.7143 12.2143 16.7143H16.0714C16.4265 16.7143 16.7143 16.4265 16.7143 16.0714V12.2143C16.7143 11.8592 16.4265 11.5714 16.0714 11.5714H12.2143Z" fill="#BE634F"/>
</svg>
