<svg width="20" height="21" viewBox="0 0 20 21" fill="none" xmlns="http://www.w3.org/2000/svg">
<path d="M16.875 1.75C15.8395 1.75 15 2.58947 15 3.625C15 4.66053 15.8395 5.5 16.875 5.5C17.9105 5.5 18.75 4.66053 18.75 3.625C18.75 2.58947 17.9105 1.75 16.875 1.75ZM13.75 3.625C13.75 1.89911 15.1491 0.5 16.875 0.5C18.6009 0.5 20 1.89911 20 3.625C20 5.35089 18.6009 6.75 16.875 6.75C15.9263 6.75 15.0764 6.32727 14.5033 5.65991L6.10623 9.56025C6.19964 9.85686 6.25 10.1725 6.25 10.5C6.25 10.8275 6.19964 11.1431 6.10623 11.4397L14.5033 15.3401C15.0764 14.6727 15.9263 14.25 16.875 14.25C18.6009 14.25 20 15.6491 20 17.375C20 19.1009 18.6009 20.5 16.875 20.5C15.1491 20.5 13.75 19.1009 13.75 17.375C13.75 17.0475 13.8004 16.7319 13.8938 16.4353L5.49674 12.5349C4.92362 13.2023 4.07368 13.625 3.125 13.625C1.39911 13.625 0 12.2259 0 10.5C0 8.77411 1.39911 7.375 3.125 7.375C4.07368 7.375 4.92362 7.79773 5.49674 8.46509L13.8938 4.56475C13.8004 4.26814 13.75 3.95245 13.75 3.625ZM3.125 8.625C2.08947 8.625 1.25 9.46447 1.25 10.5C1.25 11.5355 2.08947 12.375 3.125 12.375C4.16053 12.375 5 11.5355 5 10.5C5 9.46447 4.16053 8.625 3.125 8.625ZM16.875 15.5C15.8395 15.5 15 16.3395 15 17.375C15 18.4105 15.8395 19.25 16.875 19.25C17.9105 19.25 18.75 18.4105 18.75 17.375C18.75 16.3395 17.9105 15.5 16.875 15.5Z" fill="white"/>
</svg>
