<svg width="29" height="35" viewBox="0 0 29 35" fill="none" xmlns="http://www.w3.org/2000/svg">
<path d="M11.92 35H4.5847C4.21988 35 3.87005 34.8515 3.61203 34.5869C3.35409 34.3224 3.20925 33.9637 3.20929 33.5896L3.20921 27.9483C3.20921 27.1694 3.82498 26.538 4.58458 26.538L6.87695 26.538L6.87695 17.1358H1.37529C1.01056 17.1358 0.660643 16.9873 0.402745 16.7228C0.144766 16.4583 -7.9871e-05 16.0997 1.16372e-06 15.7256L1.34086e-09 8.67394C-8.13655e-05 4.00805 3.7019 0.212047 8.25232 0.212005C10.4567 0.212005 12.5289 1.09225 14.0876 2.69052C15.6463 4.28879 16.5047 6.41366 16.5046 8.67394V15.7256C16.5046 16.5045 15.8889 17.1359 15.1293 17.1359L9.62762 17.1359V26.5381H11.92C12.2998 26.5381 12.6437 26.6959 12.8925 26.9511C13.1414 27.2062 13.2954 27.5589 13.2954 27.9484L13.2954 33.5897C13.2954 33.9637 13.1506 34.3225 12.8927 34.587C12.6347 34.8514 12.2848 35.0001 11.92 35ZM13.7539 14.3152V8.67394C13.7538 7.16711 13.1817 5.75039 12.1426 4.68494C11.1035 3.6194 9.72191 3.03262 8.25249 3.03262C5.21887 3.03271 2.75087 5.56339 2.75083 8.67402L2.75083 14.3153L6.87703 14.3153L6.87703 10.5544C6.87703 9.77554 7.4928 9.14413 8.2524 9.14413C8.63225 9.14413 8.97611 9.30194 9.22495 9.5571C9.47388 9.81235 9.62782 10.1649 9.6277 10.5544L9.6277 14.3152H13.7539ZM10.5446 29.3586L5.96003 29.3586L5.96003 32.1793L10.5446 32.1793V29.3586Z" fill="#BE634F"/>
<path d="M24.7011 4.03684H20.4767C20.1635 4.03684 19.9427 4.22945 20.0417 4.41631L20.6527 5.56972C20.7149 5.68738 20.8899 5.76692 21.0868 5.76692H24.0911C24.2881 5.76692 24.463 5.68731 24.5253 5.56972L25.1363 4.41631C25.2351 4.22945 25.0143 4.03684 24.7011 4.03684Z" fill="#BE634F"/>
<path d="M23.9628 6.92033H21.215C20.9622 6.92033 20.757 7.04947 20.757 7.2087V15.2824C20.757 15.4416 20.9621 15.5708 21.215 15.5708H23.9628C24.2156 15.5708 24.4209 15.4417 24.4209 15.2824V7.2087C24.4209 7.04947 24.2156 6.92033 23.9628 6.92033Z" fill="#BE634F"/>
<path d="M25.7948 0H19.3831C19.1304 0 18.9251 0.129148 18.9251 0.288369V2.59512C18.9251 2.75428 19.1303 2.88349 19.3831 2.88349H25.7948C26.0475 2.88349 26.2528 2.75434 26.2528 2.59512V0.288369C26.2527 0.129148 26.0475 0 25.7948 0Z" fill="#BE634F"/>
<path d="M28.2358 23.0758L24.7707 22.5447C24.5655 22.513 24.4207 22.3977 24.4207 22.2645V17.0125C24.4207 16.8534 24.2156 16.7241 23.9627 16.7241H21.2149C20.9621 16.7241 20.7569 16.8533 20.7569 17.0125V22.2645C20.7569 22.3977 20.6122 22.513 20.407 22.5447L16.9419 23.0758C16.5014 23.122 16.1771 23.3624 16.1771 23.6445V34.025C16.1771 34.3433 16.5874 34.6016 17.093 34.6016C17.5986 34.6016 18.0089 34.3433 18.0089 34.025V24.3775C18.0089 24.2367 18.171 24.1162 18.3918 24.0931L19.3077 23.9968C19.5871 23.9674 19.8407 24.1029 19.8407 24.2811V34.025C19.8407 34.3433 20.2511 34.6016 20.7567 34.6016C21.2622 34.6016 21.6726 34.3433 21.6726 34.025V23.7483L22.5135 23.66C22.5629 23.6548 22.6143 23.6548 22.6636 23.66L23.5045 23.7483V34.025C23.5045 34.3433 23.9149 34.6016 24.4204 34.6016C24.926 34.6016 25.3363 34.3433 25.3363 34.025V24.2811C25.3363 24.1029 25.5901 23.9674 25.8694 23.9968L26.7853 24.0931C27.0061 24.1161 27.1682 24.2361 27.1682 24.3774V34.0249C27.1682 34.3432 27.5785 34.6016 28.0841 34.6016C28.5896 34.6016 29 34.3432 29 34.0249V23.6444C29.0005 23.3624 28.6764 23.1219 28.2358 23.0758Z" fill="#BE634F"/>
</svg>
