<svg xmlns="http://www.w3.org/2000/svg" style="display: none;">
  <defs>
	<symbol id="cultiv-decor" viewBox="0 0 22 20">
		<path fill="currentColor" d="M1.54351 1.17744C1.84669 1.5572 2.45371 2.2826 3.95981 2.85363C5.49105 3.43407 8.00083 3.87254 12.1337 3.54904L12.6536 3.51947C15.2069 3.43993 17.0193 4.30546 18.1949 5.5967C19.4222 6.94508 19.897 8.69277 19.897 10.1278C19.897 10.8907 19.8523 11.8196 19.5769 12.7565C19.7609 12.9748 19.9397 13.2107 20.1118 13.4673C21.1717 15.0476 21.779 16.8407 22 18.6874C21.9988 19.3543 21.46 19.9254 20.7385 19.9934C20.0169 20.0612 19.3686 19.6017 19.2266 18.9483C19.0432 17.6719 18.6707 16.4305 18.0102 15.3016C16.6377 16.5584 14.3836 17.3673 10.79 17.3673C8.1923 17.3671 6.13905 16.6518 4.555 15.4777C2.98017 14.3103 1.90902 12.7203 1.20556 11.025C-0.193649 7.65289 -0.19268 3.73825 0.295679 1.44352L0.603532 0L1.54351 1.17744ZM1.47373 3.00659C1.26822 5.12411 1.46241 8.01997 2.51085 10.5468C3.14994 12.087 4.09359 13.459 5.42246 14.4442C6.74237 15.4225 8.48493 16.0508 10.79 16.051C14.4157 16.051 16.2686 15.182 17.2467 14.1486C14.7402 10.9099 11.4724 12.5518 8.36143 10.6214C7.32549 9.97849 5.93013 8.87977 5.7782 7.58396C5.74563 7.30168 6.10951 7.22266 6.30907 7.43614C8.27268 9.54259 11.3165 9.74874 14.1409 10.1278C15.861 10.4109 17.2396 10.8198 18.392 11.6523C18.4721 11.1397 18.4959 10.6232 18.4959 10.1278C18.4959 8.93031 18.0933 7.51065 17.1304 6.45279C16.2528 5.48868 14.8584 4.76613 12.6933 4.83574L12.25 4.86016C7.97732 5.19462 5.23199 4.75558 3.43578 4.07477C2.5736 3.74789 1.94248 3.36715 1.47373 3.00659Z"/>
    </symbol>
	<symbol id="fertilizer-decor" viewBox="0 0 22 20">
		<path fill="currentColor" d="M6.62429 0C6.28892 0 6.01704 0.279822 6.01704 0.625C6.01704 0.970178 6.28892 1.25 6.62429 1.25H7.23153V7.94915L1.77014 17.1473C1.0283 18.3967 1.90195 20 3.32459 20H18.4254C19.8481 20 20.7217 18.3967 19.9799 17.1473L14.5185 7.94915V1.25H15.1257C15.4611 1.25 15.733 0.970178 15.733 0.625C15.733 0.279822 15.4611 0 15.1257 0H6.62429ZM13.304 2.5H12.0895C11.7541 2.5 11.4822 2.77982 11.4822 3.125C11.4822 3.47018 11.7541 3.75 12.0895 3.75H13.304V5H12.0895C11.7541 5 11.4822 5.27982 11.4822 5.625C11.4822 5.97018 11.7541 6.25 12.0895 6.25H13.304V7.5H12.0895C11.7541 7.5 11.4822 7.77982 11.4822 8.125C11.4822 8.47018 11.7541 8.75 12.0895 8.75H13.5707L14.3128 10H13.304C12.9686 10 12.6967 10.2798 12.6967 10.625C12.6967 10.9702 12.9686 11.25 13.304 11.25H15.055L15.7972 12.5H14.5185C14.1831 12.5 13.9112 12.7798 13.9112 13.125C13.9112 13.4702 14.1831 13.75 14.5185 13.75H16.5394L17.2816 15H15.733C15.3976 15 15.1257 15.2798 15.1257 15.625C15.1257 15.9702 15.3976 16.25 15.733 16.25H18.0238L18.9436 17.7991C19.1908 18.2156 18.8996 18.75 18.4254 18.75H3.32459C2.85038 18.75 2.55916 18.2156 2.80644 17.7991L8.35693 8.45091C8.41519 8.35278 8.44602 8.24 8.44602 8.125V1.25H13.304V2.5Z"/>
    </symbol>
	<symbol id="galery-decor" viewBox="0 0 22 20">
		<path fill="currentColor" d="M6.77473 11.2857C7.77337 11.2857 8.58294 10.4223 8.58294 9.35714C8.58294 8.29202 7.77337 7.42857 6.77473 7.42857C5.77608 7.42857 4.96652 8.29202 4.96652 9.35714C4.96652 10.4223 5.77608 11.2857 6.77473 11.2857Z"/>
		<path fill="currentColor" d="M18.2267 16.4286C18.2267 17.8487 17.1473 19 15.8158 19H3.76104C2.42952 19 1.3501 17.8487 1.3501 16.4286V6.14286C1.3501 4.72336 2.42851 3.5725 3.75919 3.57143C3.75919 2.15127 4.8386 1 6.17013 1H18.2249C19.5564 1 20.6358 2.15127 20.6358 3.57143V13.8571C20.6358 15.2766 19.5574 16.4275 18.2267 16.4286ZM18.2249 2.28571H6.17013C5.50437 2.28571 4.96466 2.86135 4.96466 3.57143L15.8158 3.57143C17.1473 3.57143 18.2267 4.7227 18.2267 6.14286V15.1429C18.8916 15.1418 19.4303 14.5666 19.4303 13.8571V3.57143C19.4303 2.86135 18.8906 2.28571 18.2249 2.28571ZM3.76104 4.85714C3.09528 4.85714 2.55557 5.43278 2.55557 6.14286V16.4286L5.74579 13.4026C5.94895 13.1859 6.26727 13.1523 6.50633 13.3223L9.71161 15.6014L14.1841 10.8312C14.3676 10.6355 14.6478 10.587 14.8799 10.7107L17.0212 13.2143V6.14286C17.0212 5.43278 16.4815 4.85714 15.8158 4.85714H3.76104Z"/>
    </symbol>
	<symbol id="pest-decor" viewBox="0 0 22 20">
		<path fill="currentColor" d="M5.97288 0.028028C6.32517 -0.0755435 6.69752 0.116869 6.80455 0.457794L7.19198 1.69194C8.23877 1.03029 9.49009 0.645326 10.8333 0.645326C12.1766 0.645326 13.4279 1.03029 14.4747 1.69194L14.8621 0.457794C14.9691 0.116869 15.3415 -0.0755435 15.6938 0.028028C16.0461 0.1316 16.2449 0.491935 16.1379 0.832859L15.5904 2.57694C16.7708 3.74035 17.5 5.33656 17.5 7.09688H18.1667C18.5349 7.09688 18.8333 6.80804 18.8333 6.45173V5.80657C18.8333 5.45026 19.1318 5.16142 19.5 5.16142C19.8682 5.16142 20.1667 5.45026 20.1667 5.80657V6.45173C20.1667 7.52066 19.2712 8.3872 18.1667 8.3872H17.5V9.67751H19.5C19.8682 9.67751 20.1667 9.96635 20.1667 10.3227C20.1667 10.679 19.8682 10.9678 19.5 10.9678H17.5V12.2581H18.1667C19.2712 12.2581 20.1667 13.1247 20.1667 14.1936V14.8388C20.1667 15.1951 19.8682 15.4839 19.5 15.4839C19.1318 15.4839 18.8333 15.1951 18.8333 14.8388V14.1936C18.8333 13.8373 18.5349 13.5484 18.1667 13.5484H17.5C17.5 17.1115 14.5152 20 10.8333 20C7.15144 20 4.16667 17.1115 4.16667 13.5484H3.5C3.13181 13.5484 2.83333 13.8373 2.83333 14.1936V14.8388C2.83333 15.1951 2.53486 15.4839 2.16667 15.4839C1.79848 15.4839 1.5 15.1951 1.5 14.8388V14.1936C1.5 13.1247 2.39543 12.2581 3.5 12.2581H4.16667V10.9678H2.16667C1.79848 10.9678 1.5 10.679 1.5 10.3227C1.5 9.96635 1.79848 9.67751 2.16667 9.67751H4.16667V8.3872H3.5C2.39543 8.3872 1.5 7.52066 1.5 6.45173V5.80657C1.5 5.45026 1.79848 5.16142 2.16667 5.16142C2.53486 5.16142 2.83333 5.45026 2.83333 5.80657V6.45173C2.83333 6.80804 3.13181 7.09688 3.5 7.09688H4.16667C4.16667 5.33656 4.8959 3.74035 6.0763 2.57694L5.52879 0.832859C5.42176 0.491935 5.62059 0.1316 5.97288 0.028028ZM5.5 8.3872V13.5484C5.5 16.1804 7.53579 18.3523 10.1667 18.6698V8.3872H5.5ZM11.5 8.3872V18.6698C14.1309 18.3523 16.1667 16.1804 16.1667 13.5484V8.3872H11.5ZM16.1667 7.09688C16.1667 5.56836 15.4809 4.19568 14.3887 3.2497C13.4447 2.43205 12.1997 1.93564 10.8333 1.93564C9.46694 1.93564 8.22195 2.43205 7.27794 3.2497C6.18577 4.19568 5.5 5.56836 5.5 7.09688H16.1667Z"/>
    </symbol>
	<symbol id="rain-decor" viewBox="0 0 22 20">
		<path fill="currentColor" d="M6.19764 14.7007C6.52511 14.8172 6.70208 15.1947 6.59293 15.544L5.96793 17.544C5.85877 17.8933 5.50482 18.0821 5.17736 17.9656C4.84989 17.8492 4.67292 17.4717 4.78207 17.1224L5.40707 15.1224C5.51623 14.7731 5.87018 14.5843 6.19764 14.7007ZM9.94764 14.7007C10.2751 14.8172 10.4521 15.1947 10.3429 15.544L9.09293 19.544C8.98377 19.8933 8.62982 20.082 8.30236 19.9656C7.97489 19.8492 7.79792 19.4716 7.90707 19.1223L9.15707 15.1224C9.26623 14.7731 9.62018 14.5843 9.94764 14.7007ZM13.6976 14.7007C14.0251 14.8172 14.2021 15.1947 14.0929 15.544L13.4679 17.544C13.3588 17.8933 13.0048 18.0821 12.6774 17.9656C12.3499 17.8492 12.1729 17.4717 12.2821 17.1224L12.9071 15.1224C13.0162 14.7731 13.3702 14.5843 13.6976 14.7007ZM17.4476 14.7007C17.7751 14.8172 17.9521 15.1947 17.8429 15.544L16.5929 19.544C16.4838 19.8933 16.1298 20.082 15.8024 19.9656C15.4749 19.8492 15.2979 19.4716 15.4071 19.1223L16.6571 15.1224C16.7662 14.7731 17.1202 14.5843 17.4476 14.7007Z"/>
		<path fill="currentColor" d="M17.7567 5.36948C17.1905 2.30825 14.6608 0 11.625 0C9.05003 0 6.84009 1.6606 5.88258 4.0311C5.71589 4.01053 5.54651 3.99996 5.375 3.99996C2.95875 3.99996 1 6.08928 1 8.66659C1 11.2439 2.95875 13.3332 5.375 13.3332L17.25 13.3332C19.3211 13.3332 21 11.5424 21 9.33325C21 7.30741 19.5881 5.63333 17.7567 5.36948ZM11.625 1.33332C14.1983 1.33332 16.3183 3.40738 16.5945 6.07337C16.6296 6.41252 16.8992 6.66862 17.219 6.66679L17.25 6.66661L17.2516 6.66661C18.6316 6.66753 19.75 7.86107 19.75 9.33325C19.75 10.806 18.6307 11.9999 17.25 11.9999L5.375 11.9999C3.64911 11.9999 2.25 10.5075 2.25 8.66659C2.25 6.82566 3.64911 5.33328 5.375 5.33328C5.63666 5.33328 5.88996 5.36744 6.13159 5.43149C6.44889 5.51558 6.77333 5.32463 6.87581 4.99346C7.53393 2.86675 9.4124 1.33332 11.625 1.33332Z"/>
    </symbol>
	<symbol id="soil-decor" viewBox="0 0 22 20">
		<path fill="currentColor" d="M21.9506 19.4202C21.8096 19.893 21.4095 20.1229 21.057 19.9338L18.6409 18.6377C18.1492 18.3739 17.6006 18.3739 17.1089 18.6377L15.7141 19.3859C14.8946 19.8256 13.9803 19.8256 13.1608 19.3859L11.766 18.6377C11.2743 18.3739 10.7257 18.3739 10.234 18.6377L8.83919 19.3859C8.01967 19.8256 7.10544 19.8256 6.28592 19.3859L4.89109 18.6377C4.39938 18.3739 3.85085 18.3739 3.35913 18.6377L0.942997 19.9338C0.590462 20.1229 0.190365 19.893 0.0493527 19.4202C-0.0916614 18.9474 0.0798093 18.4108 0.432341 18.2217L2.84848 16.9256C3.668 16.486 4.58222 16.486 5.40175 16.9256L6.79657 17.6738C7.28829 17.9376 7.83682 17.9376 8.32854 17.6738L9.72336 16.9256C10.5429 16.486 11.4571 16.486 12.2766 16.9256L13.6715 17.6738C14.1632 17.9376 14.7117 17.9376 15.2034 17.6738L16.5983 16.9256C17.4178 16.486 18.332 16.486 19.1515 16.9256L21.5677 18.2217C21.9202 18.4108 22.0917 18.9474 21.9506 19.4202ZM21.9506 13.8882C21.8096 14.361 21.4095 14.591 21.057 14.4019L18.6409 13.1057C18.1492 12.842 17.6006 12.842 17.1089 13.1057L15.7141 13.854C14.8946 14.2936 13.9803 14.2936 13.1608 13.854L11.766 13.1057C11.2743 12.842 10.7257 12.842 10.234 13.1057L8.83919 13.854C8.01967 14.2936 7.10545 14.2936 6.28592 13.854L4.89109 13.1057C4.39938 12.842 3.85085 12.842 3.35913 13.1057L0.942997 14.4019C0.590462 14.591 0.190365 14.361 0.0493532 13.8882C-0.0916609 13.4154 0.0798098 12.8789 0.432341 12.6898L2.84848 11.3936C3.668 10.954 4.58222 10.954 5.40175 11.3936L6.79658 12.1419C7.28829 12.4057 7.83682 12.4057 8.32854 12.1419L9.72336 11.3936C10.5429 10.954 11.4571 10.954 12.2766 11.3936L13.6715 12.1419C14.1632 12.4057 14.7117 12.4057 15.2034 12.1419L16.5983 11.3936C17.4178 10.954 18.332 10.954 19.1515 11.3936L21.5677 12.6898C21.9202 12.8789 22.0917 13.4154 21.9506 13.8882ZM21.9506 8.35626C21.8096 8.82905 21.4095 9.05901 21.057 8.86989L18.6409 7.57378C18.1492 7.31 17.6006 7.31 17.1089 7.57378L15.7141 8.32202C14.8946 8.76165 13.9803 8.76165 13.1608 8.32202L11.766 7.57378C11.2743 7.31 10.7257 7.31 10.234 7.57378L8.83919 8.32202C8.01967 8.76165 7.10545 8.76165 6.28592 8.32202L4.89109 7.57378C4.39938 7.31 3.85085 7.31 3.35913 7.57378L0.942998 8.86989C0.590463 9.059 0.190366 8.82904 0.0493537 8.35626C-0.0916604 7.88348 0.0798103 7.34691 0.432342 7.15779L2.84848 5.86168C3.668 5.42205 4.58223 5.42205 5.40175 5.86168L6.79658 6.60992C7.28829 6.8737 7.83682 6.8737 8.32854 6.60992L9.72337 5.86168C10.5429 5.42205 11.4571 5.42205 12.2766 5.86168L13.6715 6.60992C14.1632 6.8737 14.7117 6.8737 15.2034 6.60992L16.5983 5.86168C17.4178 5.42205 18.332 5.42205 19.1515 5.86168L21.5677 7.15779C21.9202 7.34691 22.0917 7.88348 21.9506 8.35626ZM21.9506 2.82431C21.8096 3.29709 21.4095 3.52705 21.057 3.33793L18.6409 2.04182C18.1492 1.77804 17.6006 1.77804 17.1089 2.04182L15.7141 2.79006C14.8946 3.22969 13.9803 3.22969 13.1608 2.79006L11.766 2.04182C11.2743 1.77804 10.7257 1.77804 10.234 2.04182L8.83919 2.79006C8.01967 3.22969 7.10545 3.22969 6.28592 2.79006L4.89109 2.04182C4.39938 1.77804 3.85085 1.77804 3.35913 2.04182L0.942998 3.33793C0.590463 3.52705 0.190366 3.29709 0.0493541 2.8243C-0.0916599 2.35152 0.0798108 1.81495 0.432342 1.62584L2.84848 0.32972C3.668 -0.109907 4.58223 -0.109907 5.40175 0.32972L6.79658 1.07797C7.28829 1.34174 7.83682 1.34174 8.32854 1.07797L9.72337 0.32972C10.5429 -0.109906 11.4571 -0.109906 12.2766 0.329721L13.6715 1.07797C14.1632 1.34174 14.7117 1.34174 15.2034 1.07797L16.5983 0.329721C17.4178 -0.109906 18.332 -0.109906 19.1515 0.329721L21.5677 1.62584C21.9202 1.81495 22.0917 2.35152 21.9506 2.82431Z"/>
    </symbol>
	<symbol id="varieties-decor" viewBox="0 0 22 20">
		<path fill="currentColor" d="M14.6387 9.99999C15.3592 9.91379 15.9758 9.77344 16.3524 9.55341C17.9279 8.63294 18.4678 6.5943 17.5581 4.99999C16.6485 3.40568 14.6339 2.85943 13.0584 3.77991C12.6818 3.99993 12.2534 4.47018 11.8194 5.05845C12.1058 4.38398 12.294 3.77339 12.294 3.33333C12.294 1.49238 10.8192 0 9 0C7.18076 0 5.70597 1.49238 5.70597 3.33333C5.70597 3.77339 5.89419 4.38398 6.18064 5.05845C5.74664 4.47018 5.3182 3.99993 4.94159 3.77991C3.36608 2.85943 1.35149 3.40568 0.441866 4.99999C-0.467754 6.5943 0.072055 8.63293 1.64756 9.55341C2.02417 9.77344 2.64084 9.91379 3.3613 9.99999C2.64084 10.0862 2.02417 10.2265 1.64756 10.4466C0.072055 11.367 -0.467755 13.4057 0.441866 15C1.35149 16.5943 3.36608 17.1406 4.94159 16.2201C5.3182 16 5.74666 15.5298 6.18066 14.9415C5.8942 15.616 5.70597 16.2266 5.70597 16.6667C5.70597 18.5076 7.18076 20 9 20C10.8192 20 12.294 18.5076 12.294 16.6667C12.294 16.2266 12.1058 15.616 11.8193 14.9415C12.2533 15.5298 12.6818 16 13.0584 16.2201C14.6339 17.1406 16.6485 16.5943 17.5581 15C18.4678 13.4057 17.9279 11.367 16.3524 10.4466C15.9758 10.2265 15.3592 10.0862 14.6387 9.99999ZM10.647 3.33333C10.6468 3.3371 10.6454 3.36377 10.6358 3.41808C10.6245 3.4817 10.6049 3.56703 10.5731 3.6756C10.5089 3.89536 10.4083 4.16608 10.2714 4.48126C9.99742 5.11239 9.61928 5.82831 9.22235 6.52072C9.1481 6.65026 9.07376 6.77798 9 6.90309C8.92624 6.77798 8.8519 6.65026 8.77765 6.52072C8.38072 5.82831 8.00258 5.11239 7.72857 4.48126C7.59173 4.16608 7.49112 3.89536 7.42688 3.6756C7.39515 3.56703 7.37549 3.4817 7.36424 3.41808C7.35464 3.36377 7.35319 3.33625 7.35299 3.33236C7.35299 2.41188 8.09038 1.66667 9 1.66667C9.90962 1.66667 10.647 2.41286 10.647 3.33333ZM1.86822 5.83332C2.32303 5.03617 3.3299 4.76283 4.11766 5.22307C4.11738 5.22289 4.11765 5.22307 4.11766 5.22307C4.12089 5.2252 4.14332 5.23996 4.18499 5.27552C4.23381 5.31719 4.29701 5.37708 4.37405 5.45918C4.53001 5.62535 4.71139 5.84888 4.91271 6.12639C5.31583 6.68209 5.73946 7.37144 6.13357 8.06549C6.2073 8.19533 6.27943 8.32434 6.34962 8.45153C6.20567 8.45362 6.0592 8.45491 5.91121 8.45522C5.12017 8.45686 4.31841 8.43029 3.64128 8.35486C3.30312 8.31718 3.02113 8.26999 2.80094 8.21641C2.69215 8.18994 2.6093 8.1645 2.54923 8.14254C2.49799 8.12382 2.47443 8.11175 2.47107 8.11003C2.47078 8.10989 2.47107 8.11003 2.47107 8.11003C1.68332 7.6498 1.41341 6.63048 1.86822 5.83332ZM4.11808 14.7767C3.33033 15.2369 2.32303 14.9638 1.86822 14.1667C1.41341 13.3695 1.68248 12.3507 2.47024 11.8904C2.47372 11.8886 2.49802 11.8762 2.54923 11.8574C2.6093 11.8355 2.69215 11.81 2.80094 11.7836C3.02113 11.73 3.30312 11.6828 3.64128 11.6451C4.31841 11.5697 5.12017 11.5431 5.91121 11.5448C6.0592 11.5451 6.20567 11.5464 6.34962 11.5484C6.27943 11.6756 6.2073 11.8046 6.13357 11.9345C5.73946 12.6285 5.31583 13.3179 4.91271 13.8736C4.71139 14.1511 4.53001 14.3746 4.37405 14.5408C4.29701 14.6229 4.23381 14.6828 4.18499 14.7245C4.14332 14.76 4.12121 14.7746 4.11808 14.7767C4.11808 14.7767 4.11782 14.7769 4.11808 14.7767ZM10.647 16.6667C10.647 17.5871 9.90962 18.3333 9 18.3333C8.09038 18.3333 7.35299 17.5881 7.35299 16.6676C7.35319 16.6638 7.35464 16.6362 7.36424 16.5819C7.37549 16.5183 7.39515 16.433 7.42688 16.3244C7.49112 16.1046 7.59173 15.8339 7.72857 15.5187C8.00258 14.8876 8.38072 14.1717 8.77765 13.4793C8.8519 13.3497 8.92624 13.222 9 13.0969C9.07376 13.222 9.1481 13.3497 9.22235 13.4793C9.61928 14.1717 9.99742 14.8876 10.2714 15.5187C10.4083 15.8339 10.5089 16.1046 10.5731 16.3244C10.6049 16.433 10.6245 16.5183 10.6358 16.5819C10.6454 16.6362 10.6468 16.6629 10.647 16.6667ZM16.1318 5.83333C16.5866 6.63048 16.3167 7.6498 15.5289 8.11003C15.5289 8.11003 15.5292 8.10989 15.5289 8.11003C15.5256 8.11175 15.502 8.12382 15.4508 8.14255C15.3907 8.1645 15.3078 8.18994 15.1991 8.21641C14.9789 8.26999 14.6969 8.31719 14.3587 8.35486C13.6816 8.43029 12.8798 8.45686 12.0888 8.45522C11.9408 8.45491 11.7943 8.45362 11.6504 8.45153C11.7206 8.32434 11.7927 8.19533 11.8664 8.06549C12.2605 7.37144 12.6842 6.68209 13.0873 6.12639C13.2886 5.84888 13.47 5.62535 13.6259 5.45918C13.703 5.37708 13.7662 5.31719 13.815 5.27552C13.8567 5.23994 13.8791 5.22519 13.8823 5.22307C14.6701 4.76283 15.677 5.03617 16.1318 5.83333ZM13.8819 14.7767C13.8788 14.7746 13.8567 14.76 13.815 14.7245C13.7662 14.6828 13.703 14.6229 13.6259 14.5408C13.47 14.3746 13.2886 14.1511 13.0873 13.8736C12.6842 13.3179 12.2605 12.6285 11.8664 11.9345C11.7927 11.8046 11.7206 11.6756 11.6504 11.5484C11.7943 11.5464 11.9408 11.5451 12.0888 11.5448C12.8798 11.5431 13.6816 11.5697 14.3587 11.6451C14.6969 11.6828 14.9789 11.73 15.1991 11.7836C15.3078 11.81 15.3907 11.8355 15.4508 11.8574C15.5021 11.8762 15.5263 11.8887 15.5298 11.8904C16.3175 12.3507 16.5866 13.3695 16.1318 14.1667C15.677 14.9638 14.6697 15.2369 13.8819 14.7767ZM9.00007 11.6667C8.09045 11.6667 7.35306 10.9205 7.35306 10C7.35306 9.07952 8.09045 8.33333 9.00007 8.33333C9.90969 8.33333 10.6471 9.07952 10.6471 10C10.6471 10.9205 9.90969 11.6667 9.00007 11.6667Z"/>
    </symbol>
	<symbol id="sun-decor" viewBox="0 0 22 20">
		<path fill="currentColor" d="M11 13.75C8.92893 13.75 7.25 12.0711 7.25 10C7.25 7.92893 8.92893 6.25 11 6.25C13.0711 6.25 14.75 7.92893 14.75 10C14.75 12.0711 13.0711 13.75 11 13.75ZM11 15C13.7614 15 16 12.7614 16 10C16 7.23858 13.7614 5 11 5C8.23858 5 6 7.23858 6 10C6 12.7614 8.23858 15 11 15Z"/>
		<path fill="currentColor" d="M11 0C11.3452 0 11.625 0.279822 11.625 0.625V3.125C11.625 3.47018 11.3452 3.75 11 3.75C10.6548 3.75 10.375 3.47018 10.375 3.125V0.625C10.375 0.279822 10.6548 0 11 0Z"/>
		<path fill="currentColor" d="M11 16.25C11.3452 16.25 11.625 16.5298 11.625 16.875V19.375C11.625 19.7202 11.3452 20 11 20C10.6548 20 10.375 19.7202 10.375 19.375V16.875C10.375 16.5298 10.6548 16.25 11 16.25Z"/>
		<path fill="currentColor" d="M21 10C21 10.3452 20.7202 10.625 20.375 10.625H17.875C17.5298 10.625 17.25 10.3452 17.25 10C17.25 9.65482 17.5298 9.375 17.875 9.375H20.375C20.7202 9.375 21 9.65482 21 10Z"/>
		<path fill="currentColor" d="M4.75 10C4.75 10.3452 4.47018 10.625 4.125 10.625H1.625C1.27982 10.625 1 10.3452 1 10C1 9.65482 1.27982 9.375 1.625 9.375H4.125C4.47018 9.375 4.75 9.65482 4.75 10Z"/>
		<path fill="currentColor" d="M18.0711 2.92897C18.3151 3.17305 18.3151 3.56878 18.0711 3.81286L16.3033 5.58062C16.0592 5.8247 15.6635 5.8247 15.4194 5.58062C15.1753 5.33654 15.1753 4.94082 15.4194 4.69674L17.1872 2.92897C17.4313 2.68489 17.827 2.68489 18.0711 2.92897Z"/>
		<path fill="currentColor" d="M6.58058 14.4195C6.82466 14.6635 6.82466 15.0593 6.58058 15.3033L4.81281 17.0711C4.56874 17.3152 4.17301 17.3152 3.92893 17.0711C3.68485 16.827 3.68485 16.4313 3.92893 16.1872L5.6967 14.4195C5.94077 14.1754 6.3365 14.1754 6.58058 14.4195Z"/>
		<path fill="currentColor" d="M18.0711 17.0711C17.827 17.3152 17.4313 17.3152 17.1872 17.0711L15.4194 15.3034C15.1753 15.0593 15.1753 14.6636 15.4194 14.4195C15.6635 14.1754 16.0592 14.1754 16.3033 14.4195L18.0711 16.1872C18.3151 16.4313 18.3151 16.827 18.0711 17.0711Z"/>
		<path fill="currentColor" d="M6.58058 5.58064C6.3365 5.82471 5.94078 5.82471 5.6967 5.58064L3.92893 3.81287C3.68485 3.56879 3.68485 3.17306 3.92893 2.92899C4.17301 2.68491 4.56874 2.68491 4.81282 2.92899L6.58058 4.69675C6.82466 4.94083 6.82466 5.33656 6.58058 5.58064Z"/>
    </symbol>

  </defs>
</svg>