<svg width="35" height="35" viewBox="0 0 35 35" fill="none" xmlns="http://www.w3.org/2000/svg">
<path d="M21.8569 20.0102C20.4644 22.4221 17.3804 23.2484 14.9685 21.8559C12.5567 20.4635 11.7303 17.3795 13.1228 14.9676C14.5153 12.5558 17.5993 11.7294 20.0111 13.1219C22.423 14.5144 23.2493 17.5984 21.8569 20.0102Z" stroke="#BE634F" stroke-width="2.5" stroke-linecap="round" stroke-linejoin="round"/>
<path d="M16.8726 3.91405L15.9912 5.18389C15.5302 5.84813 15.2996 6.18025 14.9918 6.36589C14.7205 6.52954 14.4084 6.61316 14.0916 6.6071C13.7323 6.60023 13.3665 6.42786 12.6352 6.08313L11.2369 5.42409C9.67095 4.68599 8.88797 4.31693 8.32265 4.44563C7.83071 4.55761 7.41507 4.88466 7.19053 5.33648C6.93249 5.85566 7.10704 6.7035 7.45618 8.39909L7.74464 9.80064C7.91523 10.6291 8.00056 11.0433 7.91454 11.4057C7.83888 11.7247 7.67138 12.0149 7.43288 12.2399C7.16213 12.4955 6.76071 12.6288 5.95795 12.8953L4.60002 13.3461C2.95698 13.8916 2.13546 14.1644 1.81482 14.6475C1.53578 15.0679 1.4604 15.5913 1.60942 16.0733C1.7806 16.6273 2.49167 17.1209 3.91393 18.108L5.18374 18.9894C5.84802 19.4503 6.18011 19.6809 6.36573 19.9887C6.5294 20.2601 6.61302 20.5721 6.60699 20.8889C6.60012 21.2483 6.42775 21.614 6.08298 22.3454L5.42397 23.7436C4.68586 25.3096 4.31679 26.0926 4.44548 26.6579C4.5575 27.1498 4.88452 27.5655 5.33633 27.7901C5.85552 28.0481 6.70341 27.8734 8.39895 27.5244L9.80056 27.2358C10.629 27.0653 11.0431 26.98 11.4055 27.066C11.7247 27.1416 12.0148 27.3091 12.2398 27.5477C12.4953 27.8184 12.6287 28.2198 12.8952 29.0225L13.346 30.3805C13.8915 32.0235 14.1642 32.8451 14.6473 33.1658C15.0677 33.4448 15.5912 33.5201 16.0731 33.3712C16.6271 33.2 17.1207 32.4889 18.1078 31.0666L18.9892 29.7968C19.4502 29.1325 19.6808 28.8004 19.9886 28.6148C20.2599 28.4512 20.572 28.3675 20.8887 28.3736C21.2481 28.3804 21.6139 28.5528 22.3452 28.8976L23.7435 29.5565C25.3094 30.2947 26.0925 30.6637 26.6578 30.535C27.1497 30.423 27.5653 30.0961 27.7899 29.6442C28.048 29.125 27.8733 28.2771 27.5243 26.5814L27.2357 25.18C27.0651 24.3515 26.98 23.9373 27.0659 23.575C27.1414 23.2559 27.3089 22.9658 27.5475 22.7408C27.8184 22.4851 28.2196 22.3519 29.0224 22.0853L30.3805 21.6344C32.0234 21.089 32.845 20.8163 33.1656 20.3332C33.4446 19.9128 33.52 19.3893 33.3711 18.9073C33.1998 18.3534 32.4887 17.8598 31.0665 16.8727L29.7967 15.9913C29.1324 15.5303 28.8002 15.2997 28.6146 14.992C28.451 14.7206 28.3674 14.4086 28.3735 14.0918C28.3803 13.7324 28.5526 13.3667 28.8974 12.6353L29.5564 11.2371C30.2946 9.67111 30.6636 8.88809 30.5348 8.32275C30.4229 7.83083 30.0959 7.41523 29.6441 7.19067C29.1248 6.93259 28.277 7.10713 26.5813 7.45623L25.1799 7.74478C24.3514 7.91537 23.9371 8.00061 23.5749 7.91468C23.2558 7.83901 22.9657 7.67151 22.7406 7.43302C22.4849 7.16219 22.3518 6.76085 22.0853 5.95808L21.6343 4.60008C21.0889 2.95708 20.8161 2.13556 20.3331 1.81495C19.9127 1.53594 19.3892 1.46052 18.9072 1.60952C18.3533 1.78072 17.8597 2.49183 16.8726 3.91405Z" stroke="#BE634F" stroke-width="2.5" stroke-linecap="round" stroke-linejoin="round"/>
</svg>
