<svg width="35" height="35" viewBox="0 0 35 35" fill="none" xmlns="http://www.w3.org/2000/svg">
<path d="M0.458765 34.6342C-0.140313 34.1117 -0.140313 33.1453 0.386587 32.5512L3.23762 29.5735C4.21202 28.6072 5.48957 28.013 6.8393 28.013C8.18903 28.013 9.46658 28.5356 10.441 29.5735C11.2638 30.3895 12.6208 30.3895 13.4436 29.5735C14.4324 28.5213 15.876 27.8412 17.1969 27.8627C18.5466 27.8627 19.8241 28.3853 20.7985 29.4232C20.7985 29.4232 21.809 30.6973 22.8267 30.6114C23.8372 30.6687 24.7034 29.5663 24.7034 29.5663C25.6778 28.6 26.9553 28.0059 28.3051 28.0059C29.6548 28.0059 30.9323 28.5284 31.9067 29.5663L34.6134 32.3222C35.1403 32.9163 35.1403 33.811 34.5412 34.4051C33.9422 34.9992 33.0399 34.9277 32.4409 34.3335L29.7342 31.5777C28.9041 30.6185 27.3884 30.8906 26.6522 31.9499C25.6778 32.9163 24.4002 33.5104 23.0505 33.5104C21.7296 33.5533 20.0984 32.9234 18.9219 31.4274C18.2073 30.6114 16.8504 30.4682 15.9193 31.4274C15.0893 32.4009 13.5086 33.174 12.166 33.1382C10.8163 33.1024 9.45937 32.6156 8.56436 31.5777C7.74153 30.7617 6.38458 30.7617 5.56175 31.5777L2.71072 34.5554C2.26322 34.8561 1.49091 35.3428 0.458765 34.6342Z" fill="#BE634F"/>
<path d="M17.6588 25.0282C10.3688 24.5486 8.27565 18.7721 8.27565 15.4221C8.27565 10.5833 15.6378 1.5714 16.5328 0.526332C17.1319 -0.203784 18.2651 -0.14652 18.7848 0.526332C19.6076 1.5714 27.3162 10.5117 27.0419 15.4221C26.5511 24.162 19.1529 25.1212 17.6588 25.0282ZM17.6588 3.80469C14.8078 7.45527 11.4298 12.8953 11.2783 15.4221C11.1483 17.6339 13.0322 22.1077 17.6588 22.1077C18.6982 22.1077 23.7867 21.4205 24.1187 15.4937C24.0393 12.8882 20.5098 7.45527 17.6588 3.80469Z" fill="#BE634F"/>
</svg>
